<?xml version="1.0" encoding="UTF-8"?>
<!DOCTYPE svg PUBLIC "-//W3C//DTD SVG 1.1//EN" "http://www.w3.org/Graphics/SVG/1.1/DTD/svg11.dtd">
<!-- Creator: CorelDRAW 2020 (64-Bit) -->
<svg xmlns="http://www.w3.org/2000/svg" xml:space="preserve" width="27.6931mm" height="27.6931mm" version="1.1" style="shape-rendering:geometricPrecision; text-rendering:geometricPrecision; image-rendering:optimizeQuality; fill-rule:evenodd; clip-rule:evenodd"
viewBox="0 0 460.39 460.39"
 xmlns:xlink="http://www.w3.org/1999/xlink"
 xmlns:xodm="http://www.corel.com/coreldraw/odm/2003">
 <defs>
  <style type="text/css">
   <![CDATA[
    .fil1 {fill:none}
    .fil0 {fill:#2F318B}
   ]]>
  </style>
 </defs>
 <g id="Layer_x0020_1">
  <metadata id="CorelCorpID_0Corel-Layer"/>
  <path class="fil0" d="M294.34 251.96l-10.84 10.97 -7.02 7.11 -37.94 38.41c-9.85,9.97 -13.09,22.16 -12.98,34.03l0 0 0 0.01c0.21,24.41 14.54,47.52 14.54,47.52l83.74 -84.79c1.08,-1.02 2.14,-2.05 3.2,-3.12 1.05,-1.07 2.07,-2.14 3.08,-3.23l0.24 -0.24 -0.01 -0.01c49.46,-53.67 47.83,-137.3 -4.5,-188.99 -53.48,-52.82 -139.65,-52.29 -192.47,1.19 -52.82,53.48 -52.28,139.65 1.2,192.47 17.52,17.3 38.55,28.88 60.77,34.74 -4.18,-17.69 2.95,-37.2 11.48,-45.83l8.44 -8.54c-14.74,-2.84 -28.83,-9.92 -40.31,-21.26 -19.9,-19.66 -27.11,-47.33 -21.55,-72.78 0.55,-2.23 1.19,-4.41 1.9,-6.54l23.93 24.23c4.36,4.41 11.63,4.6 15.73,1.15 5.29,-4.44 7.13,-10.18 1.94,-15.42l-30.96 -31.21c2.4,-3.43 5.04,-6.63 7.89,-9.59l80.63 79.63c7.42,7.32 19.48,7.25 26.8,-0.17l0 0c7.33,-7.42 7.25,-19.47 -0.17,-26.8l-74.23 -73.32c25.95,-8.42 55.96,-3.43 78.61,18.94 27.82,27.48 30.83,70.56 8.89,101.43zm-80.09 -35.56c6.87,-0.04 12.48,5.5 12.52,12.37 0.04,6.87 -5.5,12.48 -12.37,12.53 -6.88,0.04 -12.49,-5.5 -12.53,-12.37 -0.04,-6.88 5.5,-12.48 12.37,-12.53z"/>
  <rect class="fil1" x="-0" y="-0" width="460.39" height="460.39"/>
 </g>
</svg>
