<?xml version="1.0" encoding="UTF-8"?>
<!DOCTYPE svg PUBLIC "-//W3C//DTD SVG 1.1//EN" "http://www.w3.org/Graphics/SVG/1.1/DTD/svg11.dtd">
<!-- Creator: CorelDRAW 2020 (64-Bit) -->
<svg xmlns="http://www.w3.org/2000/svg" xml:space="preserve" width="50.6091mm" height="15.593mm" version="1.1" style="shape-rendering:geometricPrecision; text-rendering:geometricPrecision; image-rendering:optimizeQuality; fill-rule:evenodd; clip-rule:evenodd"
viewBox="0 0 1708.67 526.45"
 xmlns:xlink="http://www.w3.org/1999/xlink"
 xmlns:xodm="http://www.corel.com/coreldraw/odm/2003">
 <defs>
  <style type="text/css">
   <![CDATA[
    .fil0 {fill:#2F318B}
    .fil1 {fill:#2F318B;fill-rule:nonzero}
   ]]>
  </style>
 </defs>
 <g id="Layer_x0020_1">
  <metadata id="CorelCorpID_0Corel-Layer"/>
  <path class="fil0" d="M302.07 273.93l-16.35 16.55 -10.59 10.73 -57.23 57.95c-14.86,15.04 -19.74,33.42 -19.59,51.34l0 0 0 0.01c0.33,36.82 21.94,71.69 21.94,71.69l126.32 -127.9c1.62,-1.54 3.23,-3.1 4.82,-4.7 1.58,-1.61 3.12,-3.23 4.64,-4.88l0.35 -0.36 -0.01 -0.01c74.61,-80.97 72.16,-207.12 -6.79,-285.1 -80.67,-79.68 -210.67,-78.88 -290.35,1.79 -79.68,80.68 -78.88,210.68 1.8,290.36 26.43,26.1 58.16,43.56 91.68,52.41 -6.3,-26.68 4.45,-56.12 17.32,-69.14l12.73 -12.88c-22.23,-4.29 -43.49,-14.96 -60.81,-32.07 -30.03,-29.66 -40.9,-71.39 -32.52,-109.8 0.83,-3.37 1.8,-6.65 2.86,-9.87l36.1 36.55c6.58,6.66 17.55,6.93 23.73,1.74 7.98,-6.71 10.76,-15.36 2.92,-23.27l-46.7 -47.08c3.62,-5.18 7.61,-10 11.89,-14.46l121.63 120.13c11.19,11.04 29.38,10.94 40.43,-0.25l0 0c11.05,-11.19 10.93,-29.38 -0.25,-40.43l-111.99 -110.61c39.14,-12.69 84.42,-5.18 118.59,28.57 41.97,41.45 46.51,106.45 13.41,153.01zm-120.81 -53.64c10.36,-0.07 18.83,8.29 18.89,18.66 0.06,10.37 -8.3,18.83 -18.66,18.9 -10.38,0.06 -18.84,-8.3 -18.9,-18.66 -0.06,-10.37 8.29,-18.83 18.67,-18.9z"/>
  <path class="fil1" d="M589.24 110.41c-9.96,0 -20.97,1.43 -33.03,4.3 -12.07,2.87 -22.32,6.26 -30.77,10.18l-15.83 -48.87c7.84,-5.13 20.36,-9.73 37.55,-13.8 17.2,-4.07 30.92,-6.11 41.18,-6.11 17.5,0 33.48,3.47 47.96,10.41 14.48,6.94 26.02,16.59 34.61,28.96 8.6,12.37 12.9,26.24 12.9,41.63l0 144.34 -38.46 0 -9.95 -23.53c-18.4,19.31 -37.71,28.96 -57.92,28.96 -26.24,0 -46,-6.41 -59.27,-19.23 -13.27,-12.82 -19.91,-30.09 -19.91,-51.81 0,-22.32 7.54,-39.59 22.62,-51.81 15.08,-12.22 35.29,-18.32 60.63,-18.32l42.98 0c-0.3,-11.16 -3.54,-19.84 -9.73,-26.02 -6.18,-6.18 -14.7,-9.27 -25.56,-9.27zm-8.6 74.66c-9.65,0 -17.42,3.02 -23.3,9.05 -5.88,6.03 -8.82,13.28 -8.82,21.72 0,6.64 2.64,12.37 7.92,17.2 5.28,4.82 11.99,7.24 20.14,7.24 17.49,0 33.63,-7.24 48.41,-21.72l0 -33.49 -44.34 0zm218.55 -122.62l39.82 0 18.1 45.25 -57.92 0 0 93.21c0,11.76 2.79,21.27 8.37,28.51 5.58,7.24 13.5,10.86 23.76,10.86 7.84,0 15.84,-1.96 23.98,-5.88l17.2 42.53c-4.52,3.62 -11.24,6.79 -20.14,9.5 -8.9,2.72 -16.97,4.07 -24.21,4.07 -27.45,0 -48.87,-6.94 -64.25,-20.81 -15.39,-13.88 -23.08,-33.33 -23.08,-58.37l0 -103.62 -29.41 0 0 -45.25 29.41 0 0 -52.04 58.37 -10.41 0 62.44zm241.62 46.61c-9.95,0 -22.25,3.62 -36.88,10.86 -14.63,7.24 -28.28,16.44 -40.95,27.6l0 133.93 -58.82 0 0 -219.45 30.77 0 19.45 36.65c10.56,-9.35 22.93,-17.8 37.1,-25.34 14.18,-7.54 26.7,-11.31 37.56,-11.31l11.76 47.06zm114.48 1.36c-9.96,0 -20.97,1.43 -33.03,4.3 -12.07,2.87 -22.32,6.26 -30.77,10.18l-15.84 -48.87c7.85,-5.13 20.36,-9.73 37.56,-13.8 17.19,-4.07 30.92,-6.11 41.18,-6.11 17.5,0 33.48,3.47 47.96,10.41 14.48,6.94 26.02,16.59 34.61,28.96 8.6,12.37 12.9,26.24 12.9,41.63l0 144.34 -38.46 0 -9.96 -23.53c-18.4,19.31 -37.71,28.96 -57.92,28.96 -26.24,0 -46,-6.41 -59.27,-19.23 -13.28,-12.82 -19.91,-30.09 -19.91,-51.81 0,-22.32 7.54,-39.59 22.62,-51.81 15.08,-12.22 35.29,-18.32 60.63,-18.32l42.98 0c-0.3,-11.16 -3.55,-19.84 -9.73,-26.02 -6.19,-6.18 -14.71,-9.27 -25.56,-9.27zm-8.6 74.66c-9.65,0 -17.42,3.02 -23.3,9.05 -5.88,6.03 -8.82,13.28 -8.82,21.72 0,6.64 2.64,12.37 7.92,17.2 5.28,4.82 11.99,7.24 20.14,7.24 17.5,0 33.64,-7.24 48.41,-21.72l0 -33.49 -44.34 0zm268.77 -81.44c-10.26,0 -19.91,2.34 -28.96,7.01 -9.05,4.68 -19,10.93 -29.86,18.78l0 152.03 -58.82 0 0 -219.45 38.46 0 9.95 23.53c13.57,-9.65 28.05,-17.2 43.44,-22.62 15.38,-5.43 29.11,-8.14 41.18,-8.14 27.75,0 47.21,7.84 58.37,23.53 11.16,15.69 16.74,37.55 16.74,65.61l0 137.55 -58.82 0 0 -134.84c0,-13.57 -2.79,-24.13 -8.37,-31.67 -5.58,-7.54 -13.35,-11.31 -23.3,-11.31zm201.8 183.25c-11.16,0 -24.28,-1.96 -39.36,-5.88 -15.08,-3.92 -27.3,-9.5 -36.65,-16.74l17.65 -39.82c22.32,9.95 41.48,14.93 57.47,14.93 9.05,0 17.34,-1.66 24.88,-4.98 7.54,-3.32 11.31,-7.99 11.31,-14.02 0,-11.77 -12.82,-21.57 -38.46,-29.41 -20.81,-6.94 -38.16,-15.83 -52.03,-26.7 -13.88,-10.86 -20.81,-24.59 -20.81,-41.18 0,-20.81 7.69,-37.18 23.08,-49.09 15.39,-11.91 36.2,-17.87 62.44,-17.87 10.26,0 22.77,2.11 37.56,6.33 14.78,4.22 27.3,9.8 37.55,16.74l-17.65 39.37c-11.46,-5.13 -21.64,-8.9 -30.54,-11.31 -8.9,-2.41 -18.17,-3.62 -27.83,-3.62 -7.54,0 -13.8,1.88 -18.78,5.66 -4.98,3.77 -7.46,8.22 -7.46,13.35 0,3.92 2.94,7.46 8.82,10.64 5.88,3.17 14.41,6.71 25.56,10.64 21.42,7.84 39.21,17.8 53.39,29.86 14.18,12.07 21.26,26.85 21.26,44.34 0,22.02 -7.84,38.99 -23.53,50.91 -15.69,11.91 -38.31,17.87 -67.87,17.87z"/>
  <path class="fil1" d="M1034.27 454.5l-3.03 21.96 -103.48 0 51.13 -147.83 98.92 0 -3.32 22.18 -75.22 0 -13.76 39.78 48.26 0 -3.18 22.39 -52.83 0 -14.36 41.52 70.87 0zm66.86 -9.78l-32.06 31.74 -31.3 0 54.44 -53.7 -15.86 -47.18 29.09 -8.04 11.06 37.18 33.39 -33.7 30.87 0 -55.19 55.87 15.25 49.57 -31.08 0 -8.59 -31.74zm177.81 -21.31c-3.81,11.02 -9.31,20.73 -16.49,29.13 -7.18,8.41 -15.64,14.93 -25.36,19.57 -9.72,4.64 -20.16,6.96 -31.32,6.96 -5.94,0 -11.67,-1.67 -17.19,-5l-18.12 52.4 -28.04 0 53.76 -155.44 14.35 0 3.17 7.17c10.85,-6.67 21.28,-10 31.28,-10 16.38,0 27.6,4.96 33.66,14.89 6.06,9.93 6.15,23.37 0.29,40.33zm-29.13 0c3.21,-9.27 3.59,-16.77 1.15,-22.5 -2.44,-5.73 -7.57,-8.59 -15.4,-8.59 -6.09,0 -13.05,2.1 -20.88,6.3l-17.37 50.22c4.54,4.06 10.07,6.09 16.59,6.09 7.68,0 14.78,-2.93 21.31,-8.8 6.52,-5.87 11.39,-13.44 14.6,-22.72zm122.48 -29.78c-4.78,0 -11.29,1.74 -19.52,5.22 -8.23,3.48 -16.32,7.9 -24.26,13.26l-22.25 64.35 -28.26 0 36.46 -105.44 14.78 0 3.26 17.61c6.63,-4.49 13.97,-8.55 22.04,-12.17 8.06,-3.62 14.7,-5.44 19.92,-5.44l-2.16 22.61zm69.45 -25.44c10.58,0 18.64,2.46 24.18,7.39 5.54,4.93 8.61,11.56 9.21,19.89 0.6,8.33 -0.89,17.65 -4.45,27.93l-3 8.7 -71.09 0c-1.11,7.39 0.09,13.04 3.59,16.96 3.5,3.91 10.25,5.87 20.25,5.87 5.79,0 11.29,-0.8 16.48,-2.39 5.19,-1.59 10.99,-3.91 17.41,-6.96l1.19 20.44c-6.81,4.2 -13.73,7.43 -20.73,9.68 -7.01,2.25 -14.79,3.37 -23.34,3.37 -20,0 -33.5,-4.9 -40.47,-14.68 -6.98,-9.78 -7.49,-23.3 -1.52,-40.54 3.86,-11.16 9.38,-20.94 16.56,-29.35 7.18,-8.4 15.55,-14.89 25.1,-19.46 9.55,-4.56 19.76,-6.85 30.63,-6.85zm-9 24.13c-5.8,0 -11.26,1.77 -16.41,5.32 -5.14,3.55 -9.47,8.73 -12.98,15.54l44.13 0c0.96,-6.95 0.19,-12.17 -2.3,-15.65 -2.5,-3.48 -6.64,-5.22 -12.44,-5.22zm66.53 86.74c-5.36,0 -11.34,-0.94 -17.94,-2.83 -6.59,-1.89 -11.54,-4.56 -14.83,-8.05l15.1 -19.13c9.07,4.78 17.45,7.17 25.13,7.17 4.35,0 8.61,-0.8 12.78,-2.39 4.18,-1.59 6.77,-3.84 7.77,-6.74 1.95,-5.65 -2.58,-10.36 -13.59,-14.13 -8.85,-3.33 -15.71,-7.61 -20.56,-12.83 -4.87,-5.22 -5.92,-11.81 -3.16,-19.78 3.46,-10 9.88,-17.86 19.24,-23.59 9.37,-5.73 20.37,-8.59 32.97,-8.59 4.93,0 10.59,1.01 16.99,3.04 6.4,2.03 11.49,4.71 15.26,8.04l-15.02 18.92c-4.66,-2.46 -8.92,-4.27 -12.8,-5.44 -3.87,-1.16 -8.13,-1.74 -12.77,-1.74 -3.62,0 -6.94,0.91 -9.96,2.72 -3.02,1.81 -4.95,3.95 -5.8,6.41 -0.65,1.88 0.17,3.59 2.47,5.11 2.3,1.52 5.81,3.22 10.52,5.11 8.99,3.77 15.88,8.55 20.69,14.35 4.8,5.8 5.76,12.9 2.85,21.31 -3.66,10.58 -10.25,18.73 -19.76,24.46 -9.52,5.73 -21.38,8.59 -35.58,8.59zm91.74 0c-5.36,0 -11.34,-0.94 -17.93,-2.83 -6.6,-1.89 -11.54,-4.56 -14.83,-8.05l15.1 -19.13c9.07,4.78 17.45,7.17 25.13,7.17 4.35,0 8.61,-0.8 12.78,-2.39 4.18,-1.59 6.77,-3.84 7.77,-6.74 1.95,-5.65 -2.58,-10.36 -13.59,-14.13 -8.85,-3.33 -15.71,-7.61 -20.56,-12.83 -4.86,-5.22 -5.92,-11.81 -3.16,-19.78 3.46,-10 9.88,-17.86 19.24,-23.59 9.37,-5.73 20.37,-8.59 32.97,-8.59 4.93,0 10.59,1.01 16.99,3.04 6.4,2.03 11.49,4.71 15.26,8.04l-15.02 18.92c-4.65,-2.46 -8.92,-4.27 -12.79,-5.44 -3.88,-1.16 -8.13,-1.74 -12.77,-1.74 -3.62,0 -6.94,0.91 -9.96,2.72 -3.02,1.81 -4.95,3.95 -5.8,6.41 -0.65,1.88 0.17,3.59 2.47,5.11 2.3,1.52 5.81,3.22 10.52,5.11 8.99,3.77 15.88,8.55 20.69,14.35 4.8,5.8 5.76,12.9 2.85,21.31 -3.66,10.58 -10.25,18.73 -19.76,24.46 -9.52,5.73 -21.38,8.59 -35.58,8.59z"/>
  <path class="fil0" d="M584.45 329.8l315 0c7.39,0 11.67,6.04 9.53,13.42l0 0c-2.14,7.38 -9.93,13.42 -17.32,13.42l-315 0c-7.39,0 -11.67,-6.04 -9.53,-13.42l0 -0c2.14,-7.38 9.93,-13.42 17.32,-13.42z"/>
  <path class="fil0" d="M691.32 388.66l191.07 0c7.38,0 11.67,6.04 9.53,13.43l0 0c-2.14,7.38 -9.93,13.42 -17.32,13.42l-191.07 0c-7.38,0 -11.67,-6.04 -9.53,-13.42l0 -0c2.14,-7.39 9.93,-13.43 17.32,-13.43z"/>
  <path class="fil0" d="M633.97 447.53l231.34 0c7.38,0 11.67,6.04 9.53,13.43l0 0c-2.14,7.38 -9.93,13.42 -17.32,13.42l-231.34 0c-7.38,0 -11.67,-6.04 -9.53,-13.42l0 -0c2.14,-7.39 9.93,-13.43 17.32,-13.43z"/>
 </g>
</svg>
